<svg xmlns="http://www.w3.org/2000/svg" viewBox="0 0 1200 800" role="img" aria-labelledby="title desc">
	<title id="title">Simple hand study reference</title>
	<desc id="desc">Line drawing of an open hand with separated fingers and palm construction lines.</desc>
	<rect width="1200" height="800" fill="#f7f7f4" />
	<path d="M490 700c-60-75-92-165-92-270v-118c0-36 24-60 56-60 27 0 49 20 52 51V165c0-38 25-64 59-64 33 0 58 26 58 64v122-156c0-38 26-64 61-64 34 0 59 26 59 64v175-118c0-36 25-61 58-61 34 0 57 25 57 61v188l45-68c18-27 51-35 78-18 27 17 34 52 16 81L875 566c-55 88-126 134-229 134z" fill="#fff" stroke="#1f2933" stroke-width="10" stroke-linejoin="round" />
	<path d="M506 305v175M623 288v185M743 306v175M858 377v115" stroke="#6b7280" stroke-width="6" stroke-linecap="round" />
	<path d="M485 545c92 42 192 43 299 5M512 610c78 25 160 26 246 0" fill="none" stroke="#6b7280" stroke-width="6" stroke-linecap="round" />
	<path d="M548 190h56M655 155h58M775 210h54M433 335h57" stroke="#1f2933" stroke-width="6" stroke-linecap="round" />
</svg>
